<svg xmlns="http://www.w3.org/2000/svg" viewBox="0 -0.5 50 50" shape-rendering="crispEdges">

<path stroke="#9f9f9f" d="M4 1h24M3 2h1M2 3h1M1 4h1M1 5h1M24 5h1M1 6h1M24 6h1M1 7h1M24 7h1M1 8h1M24 8h1M1 9h1M24 9h1M1 10h1M24 10h1M1 11h1M24 11h1M1 12h1M24 12h1M1 13h1M24 13h1M1 14h1M21 14h24M1 15h1M20 15h1M1 16h1M19 16h1M1 17h1M18 17h1M1 18h1M18 18h1M41 18h1M1 19h1M18 19h1M41 19h1M1 20h1M18 20h1M41 20h1M1 21h1M18 21h1M41 21h1M1 22h1M18 22h1M41 22h1M1 23h1M18 23h1M41 23h1M18 24h1M41 24h1M18 25h1M41 25h1M1 26h1M18 26h1M41 26h1M1 27h1M18 27h1M41 27h1M1 28h1M18 28h1M41 28h1M1 29h1M18 29h1M41 29h1M1 30h1M18 30h1M41 30h1M1 31h1M18 31h1M41 31h1M1 32h1M18 32h1M41 32h1M1 33h1M18 33h1M41 33h1M1 34h1M18 34h1M41 34h1M46 34h1M18 35h1M41 35h1M45 35h1M11 36h1M18 36h1M44 36h1M11 37h1M43 37h1M11 38h1M41 38h2M11 39h1M18 39h1M11 40h1M18 40h1M18 41h1M18 42h1M1 43h6M14 43h5M18 44h1M18 45h1M18 46h1M18 47h1" />
<path stroke="#c0c0c0" d="M4 2h23M3 3h23M23 6h1M23 7h1M23 8h1M23 9h1M23 10h1M23 11h1M23 12h1M23 13h1M21 15h23M20 16h23M40 19h1M40 20h1M40 21h1M40 22h1M40 23h1M40 24h1M40 25h1M40 26h1M16 27h2M40 27h1M15 28h3M40 28h1M12 29h1M14 29h1M16 29h2M40 29h1M11 30h1M13 30h1M15 30h3M40 30h1M10 31h1M12 31h1M14 31h1M16 31h2M40 31h1M9 32h1M11 32h1M13 32h1M15 32h3M40 32h1M40 33h1M40 34h1M40 35h1M33 40h1M35 40h1M37 40h1M39 40h1M41 40h1M32 41h1M34 41h1M36 41h1M38 41h1M40 41h1M31 42h1M33 42h1M41 42h1M30 43h1M32 43h1M34 43h1M40 43h1M29 44h1M31 44h1M33 44h1M41 44h1M28 45h1M30 45h1M32 45h1M34 45h1M36 45h1M38 45h1M40 45h2" />
<path stroke="#808080" d="M27 2h1M26 3h2M25 4h3M25 5h3M25 6h3M25 7h3M25 8h3M25 9h3M25 10h3M25 11h3M25 12h3M25 13h3M44 15h1M43 16h2M42 17h3M42 18h3M42 19h3M42 20h3M42 21h3M42 22h3M42 23h3M42 24h3M42 25h3M42 26h3M42 27h3M42 28h3M42 29h3M42 30h3M42 31h3M42 32h3M42 33h3M42 34h2M42 35h1M41 36h1" />
<path stroke="#1f1f1f" d="M28 2h1M28 4h1M28 5h1M28 6h1M28 7h1M28 8h1M28 9h1M28 10h1M28 11h1M28 12h1M28 13h1M45 15h1M45 17h1M45 18h1M45 19h1M45 20h1M45 21h1M45 22h1M45 23h1M2 24h16M45 24h1M45 25h1M45 26h1M45 27h1M45 28h1M45 29h1M45 30h1M45 31h1M45 32h1M45 33h1M47 33h1M44 34h1M48 34h1M2 35h16M43 35h1M48 35h1M13 36h1M42 36h1M48 36h1M13 37h1M19 37h23M48 37h1M13 38h1M48 38h1M13 39h1M48 39h1M13 40h1M48 40h1M13 41h1M48 41h1M13 42h1M48 42h1M13 43h1M35 43h5M48 43h1M13 44h1M47 44h1M1 45h6M13 45h5M46 45h1M13 46h1M45 46h1M44 47h1M19 48h25" />
<path stroke="#202020" d="M28 3h1M45 16h1" />
<path stroke="#ffffff" d="M2 4h21M2 5h1M2 6h1M2 7h1M2 8h1M2 9h1M2 10h1M2 11h1M9 11h1M2 12h1M2 13h1M2 14h1M2 15h1M2 16h1M2 17h1M19 17h21M2 18h1M19 18h1M2 19h1M19 19h1M2 20h1M19 20h1M2 21h1M19 21h1M2 22h1M19 22h1M19 23h1M19 24h1M19 25h1M2 26h9M19 26h1M2 27h1M19 27h1M2 28h1M19 28h1M2 29h1M19 29h1M2 30h1M19 30h1M2 31h1M19 31h1M2 32h1M19 32h1M19 33h1M19 34h1M19 35h1M19 39h15M19 40h1M19 41h1M8 42h1M19 42h1M19 43h1M19 44h1M35 44h3M19 45h1" />
<path stroke="#e0e0d0" d="M23 4h1M4 6h19M4 7h1M22 7h1M4 8h1M22 8h1M4 9h1M22 9h1M4 10h1M22 10h1M4 11h1M22 11h1M4 12h1M22 12h1M4 13h1M22 13h1M4 14h1M4 15h1M4 16h1M4 17h1M40 17h1M4 18h1M4 19h1M21 19h19M4 20h1M21 20h1M39 20h1M4 21h1M6 21h12M21 21h1M39 21h1M4 22h14M21 22h1M39 22h1M2 23h1M21 23h1M39 23h1M21 24h1M39 24h1M21 25h1M39 25h1M16 26h2M21 26h1M39 26h1M21 27h1M39 27h1M21 28h1M39 28h1M21 29h1M39 29h1M21 30h1M39 30h1M21 31h1M39 31h1M21 32h1M39 32h1M2 33h1M21 33h1M39 33h1M21 34h1M39 34h1M21 35h19M19 36h1M34 39h9M38 44h2M19 46h1" />
<path stroke="#cfcfcf" d="M24 4h1M23 5h1M41 17h1M40 18h1M3 27h13M3 28h12M3 29h2M8 29h4M13 29h1M15 29h1M3 30h2M8 30h3M12 30h1M14 30h1M3 31h2M8 31h2M11 31h1M13 31h1M15 31h1M3 32h6M10 32h1M12 32h1M14 32h1M20 40h13M34 40h1M36 40h1M38 40h1M40 40h1M20 41h12M33 41h1M35 41h1M37 41h1M39 41h1M41 41h1M20 42h2M25 42h6M32 42h1M34 42h1M40 42h1M20 43h2M25 43h5M31 43h1M33 43h1M41 43h1M20 44h2M25 44h4M30 44h1M32 44h1M34 44h1M40 44h1M20 45h8M29 45h1M31 45h1M33 45h1M35 45h1M37 45h1M39 45h1" />
<path stroke="#efefef" d="M3 5h20M3 6h1M3 7h1M21 7h1M3 8h1M21 8h1M3 9h1M21 9h1M3 10h1M21 10h1M3 11h1M21 11h1M3 12h1M21 12h1M3 13h1M21 13h1M3 14h1M3 15h1M3 16h1M3 17h1M3 18h1M20 18h20M3 19h1M20 19h1M3 20h1M20 20h1M38 20h1M3 21h1M5 21h1M20 21h1M38 21h1M3 22h1M20 22h1M38 22h1M20 23h1M38 23h1M20 24h1M38 24h1M20 25h1M38 25h1M11 26h5M20 26h1M38 26h1M20 27h1M38 27h1M20 28h1M38 28h1M20 29h1M38 29h1M20 30h1M38 30h1M20 31h1M38 31h1M20 32h1M38 32h1M20 33h1M38 33h1M20 34h1M22 34h17M20 35h1M10 36h1M10 37h1M10 38h1M10 39h1M10 40h1M1 42h6M14 42h4" />
<path stroke="#003060" d="M5 7h16M5 8h1M5 9h1M5 10h1M5 11h1M5 12h1M5 13h1M5 14h1M5 15h1M5 16h1M5 17h1M5 18h1M5 19h1M5 20h1M22 20h16M22 21h1M22 22h1M22 23h1M22 24h1M22 25h1M22 26h1M22 27h1M22 28h1M22 29h1M22 30h1M22 31h1M22 32h1M22 33h1" />
<path stroke="#3030cf" d="M6 8h1M8 8h1M10 8h1M12 8h6M19 8h1M7 9h1M11 9h1M13 9h6M6 10h1M12 10h1M14 10h4M19 10h1M13 11h6M6 12h1M12 12h1M14 12h4M19 12h1M7 13h1M11 13h1M13 13h6M6 14h1M8 14h1M10 14h1M12 14h6M19 14h1M6 15h2M9 15h1M11 15h6M18 15h1M6 16h10M17 16h1M6 17h7M14 17h1M16 17h1M7 18h1M9 18h1M11 18h1M13 18h1M15 18h1M17 18h1M6 19h1M8 19h1M10 19h1M12 19h1M14 19h1M16 19h1" />
<path stroke="#0060cf" d="M7 8h1M9 8h1M11 8h1M6 9h1M8 9h3M12 9h1M7 10h1M11 10h1M13 10h1M6 11h2M11 11h2M7 12h1M11 12h1M13 12h1M6 13h1M8 13h3M12 13h1M7 14h1M9 14h1M11 14h1M8 15h1M10 15h1" />
<path stroke="#30009f" d="M18 8h1M20 8h1M19 9h2M18 10h1M20 10h1M19 11h2M18 12h1M20 12h1M19 13h2M18 14h1M20 14h1M17 15h1M19 15h1M16 16h1M18 16h1M13 17h1M15 17h1M17 17h1M6 18h1M8 18h1M10 18h1M12 18h1M14 18h1M16 18h1M7 19h1M9 19h1M11 19h1M13 19h1M15 19h1M17 19h1M6 20h12" />
<path stroke="#0060ff" d="M8 10h1M10 10h1M8 12h1M10 12h1" />
<path stroke="#609fff" d="M9 10h1M8 11h1M10 11h1M9 12h1" />
<path stroke="#008080" d="M23 21h1M27 21h1M29 21h1M31 21h4M36 21h1M28 22h1M30 22h1M32 22h4M29 23h1M31 23h1M33 23h2M36 23h1M28 24h1M30 24h1M32 24h1M34 24h2M29 25h1M31 25h1M33 25h2M36 25h1M28 26h1M30 26h1M32 26h1M34 26h2M23 27h1M25 27h1M27 27h1M29 27h1M31 27h1M33 27h2M36 27h1M24 28h1M26 28h1M28 28h1M30 28h1M32 28h4M23 29h1M25 29h1M27 29h1M29 29h1M31 29h4M36 29h1M24 30h1M26 30h1M28 30h1M30 30h4M35 30h1M23 31h10M34 31h1M36 31h1M23 32h9M33 32h1M35 32h1" />
<path stroke="#309f9f" d="M24 21h3M28 21h1M30 21h1M23 22h5M29 22h1M31 22h1M23 23h2M26 23h3M30 23h1M32 23h1M23 24h1M27 24h1M29 24h1M31 24h1M33 24h1M23 25h2M26 25h3M30 25h1M32 25h1M23 26h5M29 26h1M31 26h1M33 26h1M24 27h1M26 27h1M28 27h1M30 27h1M32 27h1M23 28h1M25 28h1M27 28h1M29 28h1M31 28h1M24 29h1M26 29h1M28 29h1M30 29h1M23 30h1M25 30h1M27 30h1M29 30h1" />
<path stroke="#306060" d="M35 21h1M37 21h1M36 22h2M35 23h1M37 23h1M36 24h2M35 25h1M37 25h1M36 26h2M35 27h1M37 27h1M36 28h2M35 29h1M37 29h1M34 30h1M36 30h2M33 31h1M35 31h1M37 31h1M32 32h1M34 32h1M36 32h2M23 33h15" />
<path stroke="#afaf90" d="M3 23h15M3 33h15M20 36h21M42 40h1M42 41h1M35 42h5M42 42h1M42 43h1M42 44h1M42 45h1M20 46h23" />
<path stroke="#30cfcf" d="M25 23h1M24 24h1M26 24h1M25 25h1" />
<path stroke="#00ffff" d="M25 24h1" />
<path stroke="#606060" d="M1 25h17M46 33h1M2 34h16M45 34h1M47 34h1M44 35h1M46 35h2M12 36h1M43 36h1M45 36h3M12 37h1M42 37h1M44 37h4M18 38h23M43 38h5M43 39h5M43 40h5M43 41h5M43 42h5M43 43h5M43 44h4M43 45h3M43 46h2M19 47h25" />
<path stroke="#30ff60" d="M5 29h2M5 30h1M22 42h2M22 43h1" />
<path stroke="#309f30" d="M7 29h1M6 30h2M5 31h1M24 42h1M23 43h1M22 44h1" />
<path stroke="#006030" d="M6 31h2M24 43h1M23 44h2" />
<path stroke="#5f5f5f" d="M9 36h1M9 37h1M9 38h1M12 38h1M9 39h1M12 39h1M9 40h1M12 40h1M1 41h6M14 41h4M1 44h6M14 44h4" />
<path stroke="#ff9f00" d="M7 41h5M7 42h1M11 42h1M7 43h1M11 43h1M7 44h1M11 44h1M7 45h5" />
<path stroke="#603000" d="M12 41h1M12 42h1M12 43h1M12 44h1M12 45h1M7 46h6" />
<path stroke="#ffff00" d="M9 42h1M8 43h2" />
<path stroke="#ffcf9f" d="M10 42h1M10 43h1M8 44h3" />
</svg>